HIERARCHY
ROOT Hips
{
	OFFSET	0.00	0.00	0.00
	CHANNELS 6 Xposition Yposition Zposition Zrotation Xrotation Yrotation
	JOINT Spine
	{
		OFFSET	 0.00	0.01	 0.00
		CHANNELS 3 Zrotation Xrotation Yrotation
		JOINT Spine1
		{
			OFFSET	 0.00	 2.45913012437421	 0.00
			CHANNELS 3 Zrotation Xrotation Yrotation
            JOINT Neck
            {
                OFFSET	 0.00	 2.48462964506057	 0.00
                CHANNELS 3 Zrotation Xrotation Yrotation
                JOINT Head
                {
                    OFFSET	 0.00	 0.927524780924562	 0.00
                    CHANNELS 3 Zrotation Xrotation Yrotation
                    End Site 
                    {
                        OFFSET	 0.00	 1.14999962169752	 0.00
                    }
                }
            }
			JOINT LeftShoulder
			{
				OFFSET	 0.00	 2.48462964506057	 0.00
				CHANNELS 3 Zrotation Xrotation Yrotation
				JOINT LeftUpArm
				{
					OFFSET	 0.00	 1.24881979654096	 0.00
					CHANNELS 3 Zrotation Xrotation Yrotation
					JOINT LeftForeArm
					{
						OFFSET	 0.00	2.59758046908119	 0.00
						CHANNELS 3 Zrotation Xrotation Yrotation
						JOINT LeftHand
						{
							OFFSET	 0.00	2.45542024364365	 0.00
							CHANNELS 3 Zrotation Xrotation Yrotation
							JOINT LeftHandThumb 
							{
								OFFSET	 0.00	0.00	 0.00
								CHANNELS 3 Zrotation Xrotation Yrotation
								End Site
								{
									OFFSET	 0.00	0.00	1.00000003353624
								}
							}
							JOINT L_Wrist_End 
							{
								OFFSET	 0.00	0.99999967115358	 0.00
								CHANNELS 3 Zrotation Xrotation Yrotation
								End Site 
								{
									OFFSET	 0.00	 0.00	 0.00
								}
							}
						}
					}
				}
			}
			JOINT RightShoulder
			{
				OFFSET	 0.00	 2.48462964506057	 0.00
				CHANNELS 3 Zrotation Xrotation Yrotation
				JOINT RightUpArm
				{
					OFFSET	 0.00	 1.24881979654096	 0.00
					CHANNELS 3 Zrotation Xrotation Yrotation
					JOINT RightForeArm
					{
						OFFSET	 0.00	2.59758046908119	 0.00
						CHANNELS 3 Zrotation Xrotation Yrotation
						JOINT RightHand
						{
							OFFSET	 0.00	2.45542024364365	 0.00
							CHANNELS 3 Zrotation Xrotation Yrotation
							JOINT RightHandThumb 
							{
								OFFSET	 0.00	0.00	 0.00
								CHANNELS 3 Zrotation Xrotation Yrotation
								End Site
								{
									OFFSET	 0.00	0.00	1.00000003353624
								}
							}
							JOINT R_Wrist_End 
							{
								OFFSET	 0.00	0.99999967115358	 0.00
								CHANNELS 3 Zrotation Xrotation Yrotation
								End Site 
								{
									OFFSET	 0.00	 0.00	 0.00
								}
							}
						}
					}
				}
			}
		}
	}
	JOINT LeftUpLeg
	{
		OFFSET	 1.2719394002717	 0.00	 0.00
		CHANNELS 3 Zrotation Xrotation Yrotation
		JOINT LeftLowLeg
		{
			OFFSET	 0.00	-4.3429100912261	 0.00
			CHANNELS 3 Zrotation Xrotation Yrotation
			JOINT LeftFoot
			{
				OFFSET	 0.00	-4.48767017425826	 0.00
				CHANNELS 3 Zrotation Xrotation Yrotation
				JOINT LeftToeBase
                {
                    OFFSET	 0.00	0.00	 1.51507020887566
                    CHANNELS 3 Zrotation Xrotation Yrotation
                    End Site 
                    {
                        OFFSET	 0.00	0.00	 0.75000010571191
                    }
                }
			}
		}
	}
	JOINT RightUpLeg
	{
		OFFSET	 -1.2719393604653	 0.00	 0.00
		CHANNELS 3 Zrotation Xrotation Yrotation
		JOINT RightLowLeg
		{
			OFFSET	 0.00	-4.3429100912261	 0.00
			CHANNELS 3 Zrotation Xrotation Yrotation
			JOINT RightFoot
			{
				OFFSET	 0.00	-4.48767017425826	 0.00
				CHANNELS 3 Zrotation Xrotation Yrotation
				JOINT RightToeBase
                {
                    OFFSET	 0.00	0.00	 1.51507020887566
                    CHANNELS 3 Zrotation Xrotation Yrotation
                    End Site 
                    {
                        OFFSET	 0.00	0.00	 0.749999965609858
                    }
                }   
			}
		}
	}
}
MOTION 
Frames:	15 
Frame Time: 0.02 
 -1.5727299499511718 0.1876799964904785 10.46949951171875 -57.3695 83.5099 60.7998 6.79095 -23.185 -1.76404 -1.71656 38.7563 1.04943 -2.31309 19.8455 -0.42501 22.0211 -73.1065 15.5602 -118.8641 2.54088 -10.6319 -36.8354 -4.98743 35.6889 0.0 25.4604 0.0 7.31505 -7.63269 2.6735 0.0 0.0 0.0 0.0 0.0 0.0 119.0072 1.12607 1.55109 39.5662 6.21317 -20.9848 0.0 21.6072 0.0 -1.84524 -1.70015 7.11648 0.0 0.0 0.0 0.0 0.0 0.0 6.60121 11.2256 17.2317 0.0 1.55581 0.0 -7.47041 7.22012 6.81388 0.0 -10.52681 0.0 7.89689 7.19045 9.38428 0.0 6.04505 0.0 17.1142 9.796579 -23.5075 0.0 -13.0806 0.0 
  -1.5738099670410157 0.18854799270629882 10.4693994140625 -57.2765 83.5095 60.7368 6.80237 -23.2084 -1.72986 -1.79102 38.8205 1.04406 -2.20137 19.882 -0.527759 21.5056 -72.8978 15.2087 -118.853 2.57682 -10.6029 -36.8441 -4.8474 35.4862 0.0 25.5762 0.0 7.26501 -7.82416 2.83859 0.0 0.0 0.0 0.0 0.0 0.0 119.0095 1.10722 1.60903 39.5644 6.14083 -20.8445 0.0 21.7409 0.0 -1.82929 -1.77804 7.10393 0.0 0.0 0.0 0.0 0.0 0.0 6.605 11.2388 17.2091 0.0 1.52125 0.0 -7.48115 7.24078 6.80172 0.0 -10.51299 0.0 7.90558 7.18421 9.3938 0.0 6.06444 0.0 17.1282 9.777161 -23.5436 0.0 -13.08706 0.0 
  -1.5749600219726563 0.1900320053100586 10.469599609375 -57.0801 83.5047 60.5667 6.86304 -23.2119 -1.63597 -1.95418 38.8871 1.00189 -2.17014 19.9858 -0.502133 21.4625 -72.7818 15.2656 -118.8215 2.57794 -10.5998 -36.7716 -4.61448 35.5937 0.0 25.7021 0.0 7.35975 -7.77773 3.01817 0.0 0.0 0.0 0.0 0.0 0.0 119.083496 1.09329 1.60102 39.5442 6.2198 -20.7203 0.0 21.8148 0.0 -1.82027 -1.96193 7.2726 0.0 0.0 0.0 0.0 0.0 0.0 6.6085 11.2511 17.2045 0.0 1.50627 0.0 -7.48569 7.2619 6.78107 0.0 -10.5079 0.0 7.91242 7.16682 9.35044 0.0 6.12253 0.0 17.1168 9.77142 -23.5297 0.0 -13.08127 0.0 
  -1.5761000061035155 0.19200000762939454 10.46989990234375 -56.7784 83.4871 60.2838 6.98357 -23.2004 -1.46805 -2.20111 38.977 0.940588 -2.01808 20.061 -0.532284 21.45 -72.6607 15.4194 -118.6939 2.59759 -10.6157 -36.7545 -4.33759 35.6003 0.0 25.8516 0.0 7.39021 -7.79553 2.96091 0.0 0.0 0.0 0.0 0.0 0.0 119.205 1.1103 1.65796 39.5061 6.26033 -20.7111 0.0 22.0037 0.0 -2.06649 -1.81598 7.31908 0.0 0.0 0.0 0.0 0.0 0.0 6.61587 11.2716 17.1963 0.0 1.50541 0.0 -7.47007 7.28239 6.77964 0.0 -10.51679 0.0 7.9289 7.16092 9.39439 0.0 6.18561 0.0 17.1374 9.741489 -23.6003 0.0 -13.07086 0.0 
  -1.5777299499511719 0.1941790008544922 10.47030029296875 -56.4911 83.4647 60.0026 7.119 -23.2007 -1.28408 -2.47218 39.0607 0.869144 -1.85656 20.189 -0.541962 21.5372 -72.5299 15.6424 -118.5646 2.64664 -10.6512 -36.6725 -4.06006 35.7032 0.0 26.0609 0.0 7.43587 -7.76403 2.97139 0.0 0.0 0.0 0.0 0.0 0.0 119.3288 1.14058 1.57103 39.4729 6.45938 -20.5759 0.0 22.1511 0.0 -2.06796 -1.88507 7.29997 0.0 0.0 0.0 0.0 0.0 0.0 6.62788 11.297 17.1649 0.0 1.50067 0.0 -7.49506 7.29792 6.80836 0.0 -10.51793 0.0 7.95067 7.12815 9.41368 0.0 6.30049 0.0 17.1642 9.71067 -23.6183 0.0 -13.0568 0.0 
  -1.580019989013672 0.1972999954223633 10.470899658203125 -56.2487 83.4464 59.7531 7.14134 -23.2274 -1.22968 -2.58065 39.1833 0.866331 -1.78857 20.299 -0.542444 21.4118 -72.3572 15.5879 -118.5065 2.77867 -10.6647 -36.6345 -3.75575 35.7157 0.0 26.2481 0.0 7.57649 -7.62317 2.84624 0.0 0.0 0.0 0.0 0.0 0.0 119.3356 1.23033 1.61579 39.4579 6.55306 -20.4899 0.0 22.3066 0.0 -2.17892 -1.72213 7.4392 0.0 0.0 0.0 0.0 0.0 0.0 6.64453 11.2994 17.1633 0.0 1.52431 0.0 -7.49681 7.32204 6.82124 0.0 -10.51498 0.0 7.97788 7.07686 9.41921 0.0 6.42198 0.0 17.1513 9.70551 -23.648 0.0 -13.04796 0.0 
  -1.5824400329589843 0.19968000411987305 10.471400146484376 -56.0733 83.4323 59.563 7.15595 -23.2221 -1.18564 -2.66967 39.255 0.860311 -1.82395 20.4058 -0.473882 21.3796 -72.2055 15.5206 -118.503204 2.83071 -10.6399 -36.5484 -3.33812 35.6993 0.0 26.5548 0.0 7.61777 -7.69208 2.56688 0.0 0.0 0.0 0.0 0.0 0.0 119.4021 1.22583 1.59853 39.3504 6.80286 -20.4027 0.0 22.4893 0.0 -2.27364 -1.51473 7.14181 0.0 0.0 0.0 0.0 0.0 0.0 6.65843 11.3128 17.1461 0.0 1.52039 0.0 -7.52986 7.34125 6.85038 0.0 -10.4947605 0.0 8.00218 7.0256 9.37129 0.0 6.53125 0.0 17.1209 9.7199 -23.6291 0.0 -13.06884 0.0 
  -1.585189971923828 0.20281200408935546 10.472099609375 -55.8935 83.4191 59.3433 7.16329 -23.2339 -1.15403 -2.74788 39.3407 0.855645 -1.74699 20.5725 -0.474935 21.188 -71.9426 15.3245 -118.4763 2.90195 -10.6999 -36.4825 -2.9462 35.7714 0.0 26.8347 0.0 7.84565 -7.57399 2.81881 0.0 0.0 0.0 0.0 0.0 0.0 119.413 1.32847 1.58997 39.2911 6.97796 -20.2718 0.0 22.6969 0.0 -2.37648 -1.37315 6.92852 0.0 0.0 0.0 0.0 0.0 0.0 6.67214 11.3186 17.1434 0.0 1.53851 0.0 -7.58733 7.35535 6.87502 0.0 -10.48959 0.0 8.02479 6.97042 9.35041 0.0 6.64247 0.0 17.0804 9.740601 -23.6171 0.0 -13.06808 0.0 
  -1.589149932861328 0.20688400268554688 10.4727001953125 -55.7709 83.4131 59.152 7.15315 -23.2535 -1.11498 -2.8261 39.3989 0.889345 -1.59129 20.8919 -0.554984 20.9388 -71.6973 15.0944 -118.4419 3.03558 -10.6777 -36.4 -2.53912 35.7715 0.0 27.1648 0.0 8.10186 -7.53407 3.03952 0.0 0.0 0.0 0.0 0.0 0.0 119.431 1.37474 1.54884 39.2006 7.28273 -20.2435 0.0 22.9235 0.0 -2.43846 -1.43307 6.93136 0.0 0.0 0.0 0.0 0.0 0.0 6.6842 11.3199 17.1213 0.0 1.55032 0.0 -7.63854 7.37674 6.94116 0.0 -10.46443 0.0 8.04941 6.90037 9.34845 0.0 6.75328 0.0 17.0005 9.7615795 -23.5942 0.0 -13.01736 0.0 
  -1.5927999877929688 0.2115880012512207 10.4731005859375 -55.6389 83.4172 58.9597 7.22345 -23.2544 -0.997648 -3.02622 39.4657 0.845993 -1.48237 21.1969 -0.487787 20.8634 -71.2659 14.9767 -118.3267 3.10452 -10.7219 -36.3295 -2.10101 35.7961 0.0 27.4986 0.0 8.38857 -7.47588 2.98979 0.0 0.0 0.0 0.0 0.0 0.0 119.5101 1.48245 1.52774 39.1252 7.55388 -20.1523 0.0 23.1855 0.0 -2.52812 -1.34128 6.94642 0.0 0.0 0.0 0.0 0.0 0.0 6.68433 11.3173 17.1281 0.0 1.55055 0.0 -7.70933 7.39967 6.97128 0.0 -10.43754 0.0 8.06064 6.82256 9.31945 0.0 6.86646 0.0 16.9517 9.77417 -23.5489 0.0 -13.04094 0.0 
  -1.596999969482422 0.21447599411010743 10.473599853515625 -55.7946 83.402 58.9398 7.30952 -23.3173 -0.85634 -3.16344 39.5464 0.891657 -1.357 21.66 -0.508087 20.5757 -70.8458 14.6377 -118.2047 3.23815 -10.6997 -36.3044 -1.6799 35.7259 0.0 27.8653 0.0 8.5598 -7.448 3.06143 0.0 0.0 0.0 0.0 0.0 0.0 119.4957 1.54622 1.46555 39.0921 7.91511 -20.0998 0.0 23.3826 0.0 -2.65966 -1.2498 6.99029 0.0 0.0 0.0 0.0 0.0 0.0 6.69492 11.3771 17.3508 0.0 1.47032 0.0 -7.76635 7.46783 6.88338 0.0 -10.4401 0.0 8.09441 6.74398 9.43254 0.0 6.96189 0.0 16.9032 9.8132305 -23.5339 0.0 -13.0423 0.0 
  -1.6022300720214844 0.22261999130249024 10.473900146484375 -55.8341 83.3809 58.7042 7.3717 -23.3075 -0.738366 -3.22747 39.6675 0.984356 -1.37146 22.0754 -0.427035 20.1612 -70.2827 14.1336 -118.1278 3.38398 -10.7436 -36.2868 -1.2225 35.6812 0.0 28.2197 0.0 8.79095 -7.26257 2.99678 0.0 0.0 0.0 0.0 0.0 0.0 119.4561 1.66628 1.41236 38.9764 8.32339 -19.9273 0.0 23.6524 0.0 -2.70781 -1.19632 6.91285 0.0 0.0 0.0 0.0 0.0 0.0 6.6873 11.4409 17.5834 0.0 1.40019 0.0 -7.87275 7.50532 6.885 0.0 -10.41081 0.0 8.12654 6.59944 9.68537 0.0 7.16564 0.0 16.9133 9.79195 -23.5132 0.0 -13.054461 0.0 
  -1.606719970703125 0.23233200073242188 10.4743994140625 -55.3537 83.3787 58.4996 7.23282 -23.2855 -0.967758 -3.23028 39.7916 0.765904 -1.42413 22.5756 -0.269465 19.9849 -69.7376 13.824 -118.066696 3.49309 -10.8347 -36.1362 -0.782292 35.7365 0.0 28.7412 0.0 9.01478 -7.25562 2.73948 0.0 0.0 0.0 0.0 0.0 0.0 119.514496 1.85754 1.40048 38.7729 8.68498 -19.8603 0.0 23.9932 0.0 -2.76872 -1.19397 6.89211 0.0 0.0 0.0 0.0 0.0 0.0 6.76311 11.3007 17.0783 0.0 1.53074 0.0 -7.89228 7.48547 7.06907 0.0 -10.43634 0.0 8.15301 6.5766 9.23542 0.0 7.18049 0.0 16.8103 9.86857 -23.409 0.0 -13.06812 0.0 
  -1.61197998046875 0.24600400924682617 10.475699462890624 -55.612 83.4473 58.9155 7.11804 -23.3637 -1.13185 -3.25409 40.0326 0.653101 -1.46773 23.0495 -0.141015 19.7343 -69.196 13.4698 -117.9924 3.67381 -10.9616 -36.0045 -0.331684 35.7407 0.0 29.2795 0.0 9.28543 -7.13375 2.89268 0.0 0.0 0.0 0.0 0.0 0.0 119.5075 2.00082 1.47181 38.632 9.09515 -19.6397 0.0 24.3793 0.0 -2.77095 -1.17058 6.83954 0.0 0.0 0.0 0.0 0.0 0.0 6.80266 11.0479 16.7102 0.0 1.68522 0.0 -7.91298 7.49396 7.23447 0.0 -10.45281 0.0 8.15917 6.37477 9.02116 0.0 7.29796 0.0 16.7858 9.890699 -23.3577 0.0 -13.095119 0.0 
  -1.6196400451660156 0.2559160041809082 10.475899658203126 -55.3384 83.3947 58.3686 7.14717 -23.3138 -1.08856 -3.24531 40.2225 0.718868 -1.62966 23.7432 0.0428911 19.341 -68.5875 13.004 -117.8883 3.84333 -10.9604 -35.9779 0.104779 35.6535 0.0 29.8154 0.0 9.59273 -6.98494 2.87227 0.0 0.0 0.0 0.0 0.0 0.0 119.394196 2.15743 1.44781 38.5065 9.49988 -19.572 0.0 24.7719 0.0 -3.07484 -0.950854 6.80278 0.0 0.0 0.0 0.0 0.0 0.0 6.82319 11.139 16.9758 0.0 1.63942 0.0 -7.96726 7.53946 7.18991 0.0 -10.42968 0.0 8.21797 6.26978 9.3061 0.0 7.49488 0.0 16.7757 9.87951 -23.3815 0.0 -13.10981 0.0 
